/* XPM */
static char *_374e61363df460a8d893ce1ceb1a396[] = {
/* columns rows colors chars-per-pixel */
"32 32 171 2 ",
"   c #1B9ADB",
".  c #1E9BDC",
"X  c #279FDD",
"o  c #29A0DD",
"O  c #29A0DE",
"+  c #2AA0DE",
"@  c #2BA1DE",
"#  c #2CA1DE",
"$  c #2DA1DE",
"%  c #2DA2DE",
"&  c #2EA2DE",
"*  c #2FA2DE",
"=  c #2FA3DE",
"-  c #30A3DF",
";  c #31A3DF",
":  c #31A4DF",
">  c #32A4DF",
",  c #33A4DF",
"<  c #34A5DF",
"1  c #35A5DF",
"2  c #36A6DF",
"3  c #36A6E0",
"4  c #37A6E0",
"5  c #38A6E0",
"6  c #38A7E0",
"7  c #39A7E0",
"8  c #3AA7E0",
"9  c #3AA8E0",
"0  c #3BA8E0",
"q  c #3CA8E0",
"w  c #3DA9E0",
"e  c #3DA9E1",
"r  c #3EA9E0",
"t  c #3EA9E1",
"y  c #3FA9E1",
"u  c #3FAAE1",
"i  c #40AAE1",
"p  c #41AAE1",
"a  c #41ABE1",
"s  c #42ABE1",
"d  c #44ACE2",
"f  c #45ACE2",
"g  c #46ADE2",
"h  c #48AEE2",
"j  c #49AEE2",
"k  c #4AAEE3",
"l  c #4AAFE3",
"z  c #4CAFE3",
"x  c #4DB0E3",
"c  c #4EB0E3",
"v  c #4FB1E3",
"b  c #50B1E3",
"n  c #51B1E4",
"m  c #51B2E4",
"M  c #52B2E4",
"N  c #54B3E4",
"B  c #55B3E4",
"V  c #56B4E5",
"C  c #58B5E5",
"Z  c #59B5E5",
"A  c #5AB6E5",
"S  c #5BB6E5",
"D  c #5EB7E6",
"F  c #5EB8E6",
"G  c #64BAE6",
"H  c #65BBE7",
"J  c #66BBE7",
"K  c #67BBE7",
"L  c #69BCE7",
"P  c #6ABDE7",
"I  c #6BBDE8",
"U  c #6CBDE8",
"Y  c #6CBEE8",
"T  c #6EBEE8",
"R  c #6FBFE8",
"E  c #70BFE8",
"W  c #72C0E9",
"Q  c #73C1E9",
"!  c #74C1E9",
"~  c #76C2E9",
"^  c #77C2E9",
"/  c #77C3E9",
"(  c #78C3EA",
")  c #79C3EA",
"_  c #7CC5EA",
"`  c #7DC5EA",
"'  c #7FC6EB",
"]  c #80C7EB",
"[  c #81C7EB",
"{  c #82C7EB",
"}  c #83C8EB",
"|  c #84C8EB",
" . c #84C8EC",
".. c #86C9EC",
"X. c #87C9EC",
"o. c #88CAEC",
"O. c #8CCCED",
"+. c #8DCCED",
"@. c #8ECCED",
"#. c #8ECDED",
"$. c #93CFEE",
"%. c #94CFEE",
"&. c #95D0EE",
"*. c #96D0EE",
"=. c #9AD2EF",
"-. c #9ED4EF",
";. c #9FD4F0",
":. c #A0D4F0",
">. c #A0D5F0",
",. c #A1D5F0",
"<. c #A2D5F0",
"1. c #A2D6F0",
"2. c #A3D6F0",
"3. c #A4D6F0",
"4. c #A6D7F1",
"5. c #A7D7F1",
"6. c #A8D8F1",
"7. c #A9D8F1",
"8. c #A9D9F1",
"9. c #ABD9F1",
"0. c #ACDAF2",
"q. c #B2DCF3",
"w. c #B2DDF3",
"e. c #B5DEF3",
"r. c #B9E0F4",
"t. c #BAE0F4",
"y. c #BBE0F4",
"u. c #BBE1F4",
"i. c #BDE1F4",
"p. c #BDE2F4",
"a. c #BEE2F4",
"s. c #BFE2F4",
"d. c #BFE2F5",
"f. c #C2E3F5",
"g. c #C2E4F5",
"h. c #C5E5F5",
"j. c #C7E6F6",
"k. c #C8E6F6",
"l. c #C9E7F6",
"z. c #CDE9F7",
"x. c #CEE9F7",
"c. c #D3EBF8",
"v. c #D5ECF8",
"b. c #D6EDF8",
"n. c #D7EDF8",
"m. c #D8EDF8",
"M. c #D9EEF9",
"N. c #DAEFF9",
"B. c #DBEFF9",
"V. c #DCEFF9",
"C. c #DDF0F9",
"Z. c #DEF0F9",
"A. c #E0F1FA",
"S. c #E9F5FB",
"D. c #EAF5FB",
"F. c #EDF7FC",
"G. c #EEF7FC",
"H. c #EFF8FC",
"J. c #F6FBFD",
"K. c #F7FBFD",
"L. c #F8FCFE",
"P. c #F9FCFE",
"I. c #FAFDFE",
"U. c #FBFDFE",
"Y. c #FCFDFE",
"T. c #FCFEFE",
"R. c #FDFEFE",
"E. c #FEFEFE",
"W. c #FFFFFE",
"Q. c gray100",
"!. c None",
/* pixels */
"!.!.!.!.!.!.!.!.!.!.!.!.i i i q s i i q !.!.!.!.!.!.!.!.!.!.!.!.",
"!.!.!.!.!.!.!.!.!.q a q 3 $ & & $ = $ 3 q i q !.!.!.!.!.!.!.!.!.",
"!.!.!.!.!.!.!.q q 0 $ q I *.0.u.y.6.*.I q $ 6 i q !.!.!.!.!.!.!.",
"!.!.!.!.!.!.q q $ k <.c.g.<. .( ( } <.j.c.<.k $ i q !.!.!.!.!.!.",
"!.!.!.!.!.q q - #.V.3.B 3 $ $ 3 3 @ $ 3 m 3.V.#.3 q q !.!.!.!.!.",
"!.!.!.!.i 0 3 f.l.v + 3 q s q i i q s q 3 @ v l.y.6 q q !.!.!.!.",
"!.!.!.q 0 2 z.6.$ 6 i i 0 3 q q q q 3 0 i i 6 $ 5.x.3 0 q !.!.!.",
"!.!.q q & f.6.X i i q $ h I 3 q q 3 R k & q i i X 5.y.3 i q !.!.",
"!.!.s & O.j.@ i q 0 3  .F.E.^ & & ( E.F. .3 q q i & h.#.+ i !.!.",
"!.q 0 l M.x 3 q i i t.E.E.P.E.V.N.E.E.E.E.u.0 q q 3 v M.k 6 q !.",
"!.i & -.<.@ i q 3 6 f.E.E.E.c.w.e.c.P.E.P.&.& 0 q i $ <.<.$ i !.",
"!.q q z.B 3 i 2 J G . &.A.I 3 & & 2 R n.I . #.R 3 q 3 B x.q q !.",
"i 3 P g., q q 3 k.E.' 3 0 3 6 3 3 6 2 , 0 6.E.j.3 t q 3 g.I 3 q ",
"q @ %.<.& i 2 N K.E.E.R , 3 m <.=.l 0 , ( E.E.J.B 6 i $ <.$.$ i ",
"i & 6. .& i - ^ E.E.H.x 2 v S.E.E.Z.g 3 l H.E.E.( 3 a $ } 8.$ i ",
"i - y.^ 3 i - ..E.E.M.0 & #.E.P.P.E.( , 0 n.E.E. .+ a = ^ u.3 q ",
"q 3 u.^ 3 a = ' E.E.Z.q ,  .E.P.E.E.W 3 q N.E.E.} = a 3 ^ u.$ i ",
"q $ 6. .+ t 0 h F y.E.m 3 i k.E.E.u.0 3 v E.y.G h 0 q $ } 8.$ i ",
"i $ $.;.+ i t 0 3 3 S.3.@ q q R P 6 i @ 6.S.3 3 0 q i + ;.$.= i ",
"q 3 I g.3 t 0 t i @ w.E.^ @ 3 3 - 6 @ W E.w.@ s 0 0 t 3 g.I 3 t ",
"!.q q x.N 3 t t q q M.E.P.<.m i i m <.P.E.M.i q t t 3 N x.q q !.",
"!.s $ ;.<.+ t t 2 J E.E.P.E.E.F B E.E.P.E.E.K 3 t i + ;.;.$ i !.",
"!.q 0 k M.v 6 i q 3 } P.E.E.E.G S E.E.E.P.} 3 q t 3 v M.k 0 q !.",
"!.!.s @ #.h.$ q q q 3 N y.K.E.G S E.K.y.S $ q q t $ h.#.$ a !.!.",
"!.!.q i = y.6.@ t t i 6 3 v ) x h ' m 3 6 u t u O 6.f.$ i q !.!.",
"!.!.!.q 0 6 x.6.$ 3 i t t 3 3 6 0 $ 3 a t t 6 $ 6.x.6 q q !.!.!.",
"!.!.!.!.i 6 6 f.l.v + 3 t i i q q a i q 6 + v h.y.3 6 q !.!.!.!.",
"!.!.!.!.!.q 0 & #.C.<.N 3 + $ 3 3 $ + 3 N <.C.#.3 0 q !.!.!.!.!.",
"!.!.!.!.!.!.q i $ l <.n.h.<.} ( ^ } <.h.n.<.k $ i q !.!.!.!.!.!.",
"!.!.!.!.!.!.!.q t 0 $ q R *.8.u.u.8.*.R t $ 0 q q !.!.!.!.!.!.!.",
"!.!.!.!.!.!.!.!.!.q i q 3 + $ = $ $ + 3 q i q !.!.!.!.!.!.!.!.!.",
"!.!.!.!.!.!.!.!.!.!.!.!.i q a t a i i q !.!.!.!.!.!.!.!.!.!.!.!."
};
