/* XPM */
static char *_0f62e49eef349578fe98ea09eb73d00[] = {
/* columns rows colors chars-per-pixel */
"16 16 84 1 ",
"  c #239DDD",
". c #269EDD",
"X c #269FDD",
"o c #279FDD",
"O c #29A0DD",
"+ c #2AA0DE",
"@ c #2DA2DE",
"# c #2FA2DE",
"$ c #30A3DF",
"% c #31A3DF",
"& c #32A4DF",
"* c #33A5DF",
"= c #34A5DF",
"- c #35A5DF",
"; c #36A5DF",
": c #38A7E0",
"> c #39A7E0",
", c #3AA7E0",
"< c #3BA8E0",
"1 c #3DA9E0",
"2 c #3EA9E1",
"3 c #40AAE1",
"4 c #41ABE1",
"5 c #42ABE1",
"6 c #43ACE2",
"7 c #44ACE2",
"8 c #45ACE2",
"9 c #46ADE2",
"0 c #47ADE2",
"q c #49AEE2",
"w c #4AAFE3",
"e c #4BAFE3",
"r c #4CAFE3",
"t c #4DB0E3",
"y c #4EB0E3",
"u c #4FB1E3",
"i c #50B1E3",
"p c #50B1E4",
"a c #56B4E4",
"s c #60B8E6",
"d c #61B8E6",
"f c #61B9E6",
"g c #62B9E6",
"h c #66BBE7",
"j c #68BCE7",
"k c #69BCE7",
"l c #6BBDE8",
"z c #6DBEE8",
"x c #78C3EA",
"c c #7FC6EB",
"v c #80C6EB",
"b c #84C8EB",
"n c #87CAEC",
"m c #88CAEC",
"M c #89CAEC",
"N c #89CBEC",
"B c #8ACBEC",
"V c #91CEEE",
"C c #92CEEE",
"Z c #93CFEE",
"A c #94CFEE",
"S c #96D0EE",
"D c #99D1EF",
"F c #A5D7F1",
"G c #A6D7F1",
"H c #A8D8F1",
"J c #A9D8F1",
"K c #A9D9F1",
"L c #AAD9F1",
"P c #C7E6F6",
"I c #D4ECF8",
"U c #D6EDF8",
"Y c #D8EDF9",
"T c #E8F5FB",
"R c #EEF7FC",
"E c #EFF7FC",
"W c #EFF8FC",
"Q c #F2F9FD",
"! c #F3F9FD",
"~ c #F8FCFD",
"^ c #FCFDFE",
"/ c #FFFFFE",
"( c gray100",
") c None",
/* pixels */
")))))O:77:+)))))",
")))@0xBBBBx7@)))",
"))@dDj2>:2kDd@))",
")@dS:Xt&&eX:Ah@)",
")0D:&L(LL(F%<D0)",
"Oxh&tLYccIDa%hxO",
">n36TnXprXAE33B:",
"0n%d(Vt((0A(d%B7",
"6n;rYV3~E2AIr;B7",
":n0;,P0330P:;0n:",
"Oxh@tE!zj!Et@hxO",
")0D,,b(JF(b::D0)",
")@dS:O7pu7X:Sd@)",
"))@dDk3=-3kDd%))",
")))@7xBBBBx0@)))",
")))))O:77:O)))))"
};
