/* XPM */
static char *b2a6c80014c04da0ea74de7b66e9e70d[] = {
/* columns rows colors chars-per-pixel */
"64 64 42 1 ",
"  c #2FA2DE",
". c #33A4DF",
"X c #37A6E0",
"o c #39A7E0",
"O c #3DA9E1",
"+ c #41AAE1",
"@ c #49AEE2",
"# c #4EB0E3",
"$ c #54B3E4",
"% c #5BB6E5",
"& c #5FB8E6",
"* c #63B9E6",
"= c #6ABDE7",
"- c #6CBEE8",
"; c #70BFE8",
": c #74C1E9",
"> c #7AC4EA",
", c #82C7EB",
"< c #85C8EB",
"1 c #8ECDED",
"2 c #92CEED",
"3 c #96D0EE",
"4 c #9CD3EF",
"5 c #9FD4F0",
"6 c #A3D6F0",
"7 c #ABD9F1",
"8 c #B4DEF3",
"9 c #B8DFF3",
"0 c #BDE1F4",
"q c #C2E3F5",
"w c #C9E7F6",
"e c #CDE8F7",
"r c #D2EBF7",
"t c #D5ECF8",
"y c #DCEFF9",
"u c #DFF1FA",
"i c #E4F3FA",
"p c #EBF6FB",
"a c #EFF8FC",
"s c #F4FAFD",
"d c #FEFEFF",
"f c None",
/* pixels */
"ffffffffffffffffffffffffffOoOOoOOOOOOOffffffffffffffffffffffffff",
"ffffffffffffffffffffffoOOOOOOOOOOOOOOOoOOOffffffffffffffffffffff",
"ffffffffffffffffffffOOOOOOOOOOOOOOOOOOOOOOOOffffffffffffffffffff",
"fffffffffffffffffoOOOOOOO+OOoXXX..ooO++OOOOOOOOfffffffffffffffff",
"ffffffffffffffffOOOOO++O...O+$*==*$+O. .O+OOOOOOffffffffffffffff",
"ffffffffffffffOOOOOO+. O*10iddddddddiq2%O..+OoOOOOffffffffffffff",
"fffffffffffffOOOOOO..$5idddiq6222260udddi6$..+OOOOOfffffffffffff",
"fffffffffffOOOoO+..*qddi6;@o     . .X@:6idd0*.oOOoOOOfffffffffff",
"ffffffffffOOOoO+ #9ddq=O XOOO+++O++OOoX o=qdd0# +OoOOOffffffffff",
"fffffffffOOOOOo.,adq%X.OOOOOOOOOOOOOOOo+OXX&qds,.o+OOOOfffffffff",
"ffffffffOOOOOoO8dp:XXO+OOOOOOOOOOOOOOOOOOOOX :pd8Oo+oOOoffffffff",
"fffffffoOOOO.@td0+ OOOOOOOOOOOOOOOOOOoOOOOOOOXO9dt@.+OOOOfffffff",
"fffffffOOO+.$id3XXOOOOOOOOOOoOOOOOOOOOOOOOOOOOXX3di$.+OOOfffffff",
"ffffffOOOOo@ud< OOOOOOOOOOOOOOOOOOOOOOOOOOOOOOOO <dy@X+OOOffffff",
"fffffOOOOOOrd< +OOOOOOOOOX XOOOOOOOOX XOOOOOOOOOO <drOOOoOOfffff",
"fffffOOOO.8d3 OOOOOOOOOXX%72.+OOOO+X27%XXOOOOOOOO+ 3d8.+OOOfffff",
"ffffOOo+X>d0XOOOOOOOOO $0dda$.+OO+ $sdd0% OOOOOOOOO.0d, OOOOffff",
"fffOOOOo#sp+oOOOOOOOOX3sddddi% ...%udsdds3.OOOOOOoOo+is$oOOOOfff",
"fffOOOO.8d:XOOOOOOOXO0ddddddds8228sdddddddqO.OOOOOO+X:d8XOOOOfff",
"fffOOO.*d0 OOOOOOOo@rddddddddddddddddddddddrOOOOOOOOO.qd%XOOOfff",
"ffOOO+.0d&XOOOOOO+o$idddddddddddddddddddddd1OOOOOOOOOX%d0.OOOoff",
"ffoOO.%d0.OOOOOXOo+o+0ddddddw2*%%*2wdddddi= +.OOOOOOOO.qd%.OOOff",
"fOOO+ 4d-.OOOOOOo+.OO.2dddw*..X... .*wddt@.+ =*.OOOOOO.=d5 +oOOf",
"fOOOOOiiOOOOOOOO.r0O.+ =p4..O+OO+O++..69oX+ >dr.OOOOOOOOiiOOOOOf",
"foOO.*d6.+OOOOOX;ddt$ +.+oOOOOOO+OOO+O..OO.6ddd:X+OOOO+ 6d*.OOOf",
"fOO+ 1d;.OOOOO+X0ddds>.OOOOOOOOXXO+OOOO+O+qdddd0XOOOOOO :d1 +OOf",
"OOO+.0d@OOOOOOO#addddd4.+OOOO O$$O.OOOOOXwddddda#XOOOOOO+d0.OOOO",
"OOOOoiuXOOOOOO :dddddd6.OOOoo1udst:.OOO+.5dddddd> OOOOOOOuiOOOOo",
"oOOo+dq.OOOOOO 5dddddd$.OOO.8dddddd2XOOO.%dddddd6 OOOOO+.qd+oOOO",
"OOOo$d6 OOOOO+X0dddddtOOO+.<dddddddd&.OOOOtddddd0XOOOOO+ 6d$.+OO",
"OOO.*d3 +OOOOOXedddddq.+OO.wdddddddd7 +OO.0dddddeXOOOOOO 2d*.+OO",
"OOO.=d2 +OOOOOXeddddd8.OOO+iddddddddqXOOOX7dddddtoOOOOO+ 1d-.OOO",
"OOOX=d1 OOOOOOXedsddd9.OOOOtdddddddd9.+O+.8ddddde.+OOOOOX1d-XOOO",
"OOoX*d3 +OOOOoXqdddddr.+O+.7dddddddd<.OOO.edddddq.OOOOO+ 2d*.OOO",
"OOOX$d6 +OOOOOo%-2idda@oOOo$pddddddtOOOOO@sddi2-$OOOOOO+ 6d$XOOO",
"oOOO+d0XOOOOOOOo. +wdd>.OO+.*iddddr@XOO+.:ddq+..oOOOOOOO 0d+oOOO",
"OOOoXiuOOOOOOOoO++.+idw.+OOO.+,76:OXOOOO.wdi+.+OOOOOOOOO.uioOOOO",
"OOOOX0d+OOOOOOOOOO+.3dd> +OOOO. ..OOOO+ >dd3.+OOOOOOOOOX@dq.OOOO",
"fOO+ 1d-XOOOOOOOOOO.:dda$.+OOOOOO+OOOO.$pdd:.+OOOOOOOOOX-d1.OOOf",
"fOOOX&d7 OOOOOOOOO+.;dddu$ O+OOOOOO+O $iddd:.+OOOOOOOO+ 6d*.OOOf",
"fOOOOOiiOOOOOOOOOO+ 1ddddp>..OOOOOo..>adddd2 +OOOOOOOOOOiiOOOOof",
"fOOo+ 4d-.OOOOOOOOoOtdddddde>@OOOO@>eddddddyOOOOOOOOOO.=d5 +OOOf",
"ffOO+.%dq.+OOOOOOO.7dddddddddd<..>dddddddddd7.OOOOOOOO.0d%XOOOff",
"ffOOOO.0d%.OOOOOOO.>dddddddddd3..<dsddddddds>.OOOOOO+.&d0.OOOOff",
"fffOOO.*dq.OOOOOoOO -sdddddddd2X.<dddddddds: OOOOOOO+.qd*.+Oofff",
"fffOOOO.8d:.OOOOOOO+.%uddddddd3 X<dddddddu* +OOOOOO+.:d8.OOOOfff",
"fffOOOOo#si+OOOOOOOO+.+6sdddsd3XX<dsddds6O.+oOOOOOOO+is#XOoOOfff",
"ffffOOO+.,d0.OOOOOOOOOO %7iddd3X.<dddp7$.O+OOOOOXOOX9d,.+OOOffff",
"fffffOOOO.8d2 +OOOOOOOOOX.+:6e>XX:e6:+ XOOOOOOOOO+ 2d8.+OOOfffff",
"fffffOOOOo+td< +OOOOOOOOOOO. XoOOXX XOOOOOOOOOOOO <dt+oOOOOfffff",
"ffffffoOOOo@ud< OOOOOOOOOOOOO+OOOOO+OOOOOOOOOOOO <di@oOOOOffffff",
"fffffffOOOO.$id3.o+OOOOOOOOOOOOOOOOOOOOOOOOOOOo.2du$.OOOOfffffff",
"fffffffOOOO+.@td0+.+OOOOOOOOOOOOOOOOOOOOOOOO+.+0dt@.+OOOOfffffff",
"ffffffffoOOoOXO8di:..+OOOOOOOOOOOOOOOOOOOO+..:id9OX+OOOOffffffff",
"fffffffffOOOO+O.,adq%..OOOOOOOOOOOOOOO+OO..&qda,.O+oOOofffffffff",
"ffffffffffOOOOOO #0ddq-+ XOOOO+O+OOOOo. O-qdd8$.OOOOOOffffffffff",
"fffffffffffOOOoO+o.*0ddi6:+X.       o+-6iddq*.oOOoOOOfffffffffff",
"fffffffffffffOOOOOO..%5idddi0622136qidddi4%..OOOOOOfffffffffffff",
"ffffffffffffffOOOOOOO..o*1qisdddddddiq2*O .+OOOOOOffffffffffffff",
"ffffffffffffffffoOOOOO+O. XO+$*--*$+O. .O+OOOOOOffffffffffffffff",
"fffffffffffffffffOOOOOoOO++Ooo....Xoo++OOOOOoOOfffffffffffffffff",
"ffffffffffffffffffffOOOOOOOOOO+OO+OOOOOOOOoOffffffffffffffffffff",
"ffffffffffffffffffffffOOoOOOOOOOOOOOOOOOOOffffffffffffffffffffff",
"ffffffffffffffffffffffffffOOoOOOOOOoOOffffffffffffffffffffffffff"
};
