/* XPM */
static char *_cb27bb3b0b44d51a4e2fd94fb9e0b52[] = {
/* columns rows colors chars-per-pixel */
"128 128 47 1 ",
"  c #2EA2DE",
". c #32A4DF",
"X c #3BA7DF",
"o c #3CA8DF",
"O c #36A6E0",
"+ c #39A7E0",
"@ c #3DA9E1",
"# c #42ABE1",
"$ c #4AAEE2",
"% c #4EB0E3",
"& c #54B2E4",
"* c #5BB6E5",
"= c #5FB8E5",
"- c #64BAE6",
"; c #6ABCE7",
": c #6EBEE8",
"> c #71BFE8",
", c #74C1E9",
"< c #7BC4EA",
"1 c #82C7EB",
"2 c #86C9EB",
"3 c #8BCBEC",
"4 c #92CEED",
"5 c #96D0EE",
"6 c #9BD2EF",
"7 c #9ED4F0",
"8 c #A1D5EF",
"9 c #A4D6F0",
"0 c #A8D7F1",
"q c #A7D8F1",
"w c #ABD9F1",
"e c #B3DDF2",
"r c #B8DFF3",
"t c #BDE1F4",
"y c #C4E4F5",
"u c #C9E6F6",
"i c #CDE9F7",
"p c #D2EAF7",
"a c #D6ECF8",
"s c #DAEEF9",
"d c #DEF0F9",
"f c #E4F2FA",
"g c #ECF6FB",
"h c #EFF8FC",
"j c #F4FAFD",
"k c #FEFEFF",
"l c None",
/* pixels */
"lllllllllllllllllllllllllllllllllllllllllllllllllllllllo++@@X@@@@@@O@@@oXlllllllllllllllllllllllllllllllllllllllllllllllllllllll",
"llllllllllllllllllllllllllllllllllllllllllllllllll@+@+o@@@@@@@@@@@@@@@@o@@o@@+llllllllllllllllllllllllllllllllllllllllllllllllll",
"llllllllllllllllllllllllllllllllllllllllllllll@@@@@@@@@@@@@@@@@@@@@@@@@@@@@@@@@@@Xllllllllllllllllllllllllllllllllllllllllllllll",
"lllllllllllllllllllllllllllllllllllllllllll@@X@@@@@Xo@@@@@@@@@@@@@@@@@@@X@@+X@@@@@@o@lllllllllllllllllllllllllllllllllllllllllll",
"llllllllllllllllllllllllllllllllllllllllX@X@@@@++@@@@@@@@@@@@@@@@@@@@@@@@@@@@@@+@@@@@@+ollllllllllllllllllllllllllllllllllllllll",
"llllllllllllllllllllllllllllllllllllll@@@@@@@@@@@@@@@@@@@@@@@@@@@@@@@@@@@@@@@@@@@@+@@@@@@@llllllllllllllllllllllllllllllllllllll",
"llllllllllllllllllllllllllllllllllll@+@@@X@@@@@@@@@@@@@@@@@@@@@@@@@@@@@@@@@@@@@@@@@@@@@@@@X@llllllllllllllllllllllllllllllllllll",
"llllllllllllllllllllllllllllllllll@@@@+@@@@@@@@@@@@@@@@@@@@#@#@@@@#@@@@@@@@@@@@@@@@@@@@@X@@@@@llllllllllllllllllllllllllllllllll",
"llllllllllllllllllllllllllllllll@o@@@@@@@@@@@@@@@@@@##@@+@X O      OO++X@@#@@@@@@@@@@@@@@@o@@@X@llllllllllllllllllllllllllllllll",
"llllllllllllllllllllllllllllllX@@@@X@@@@@@@@@@@@@#@+. .@##*,26565542>*##@O .+@#@@@o@@@@@@@@@@@@@@@llllllllllllllllllllllllllllll",
"lllllllllllllllllllllllllllll@@@@@@@@@@@@@@@@@#X O@#-6eidhkkkkkkkkkkkkhfir6-#+O @#@@@@@@@@@@@@@@@X@lllllllllllllllllllllllllllll",
"lllllllllllllllllllllllllll+@@@o@@@@@@@@@@@#@..#-7igkkkkkkkkkkkkkkkkkkkkkkkkgi7-# .o#@@@@@@@@@@@@@@@Xlllllllllllllllllllllllllll",
"llllllllllllllllllllllllllX@@@@@@@@@@@@@@@O #;9fkkkkkkkkkkkgffsfddffgkkkkkkkkkkkf0;# +##@@@@@@@@@@+@@ollllllllllllllllllllllllll",
"lllllllllllllllllllllllll@@oX@@@@@@@@@@#OO&3skkkkkkkkfuw4>&$########$&:4wyfkkkkkkkks3& .@@@@@@@@@@@@@@@lllllllllllllllllllllllll",
"lllllllllllllllllllllllX@@@@@@@@@@@@@@..*9jkkkkkkfr5*@+. .++o@+@o@@@XO.  @#*6tfkkkkkkj8*OO#@o@@@@@@@@@@@Xlllllllllllllllllllllll",
"llllllllllllllllllllllo@@@@@@@@@@@@@@ *ekkkkkkfw,#X O+@@#@@@@@@@@@@@@@#@#@@. .#,wfkkkkkke&O+@@@@@@@@@@o@@@llllllllllllllllllllll",
"lllllllllllllllllllll@o@+@@@@@@@@@@ $0hkkkkkt<#OO@@##@@@@@@@@@@@@@@@@@@@@@@@#@@..$<ykkkkkjw% @@@@@@@@@@@@@+lllllllllllllllllllll",
"llllllllllllllllllll+@@@@@@@@@@@@OO3gkkkkkw*OO@@@@@@@@@@@@@@@@@@@@@@@@@@@@@@@@@@@+.+=wkkkkkg3.O#@@@@@@@@@@@@llllllllllllllllllll",
"lllllllllllllllllll@@@@@@@@@@@@@.*ukkkkkw* .@#@@@@@@@@@@@@@@@@@@@@@@@@@@@@@@@@@@@@@@.O*qjkkkku* @@@@@@@@@@@@@lllllllllllllllllll",
"llllllllllllllllll@@@@@@@@@@+#+O3hkkkkt*..##@@@@@@@@@@@@@@@@@@@@@@@@@@@@@@@@@@@@@@@@@@O *tkkkkj3.+@@@@@@@@@o@@llllllllllllllllll",
"lllllllllllllllll@@X@@@@@@@o#.#tkkkkd,.O#@@@@@@@@@@@@@@@@@@@@@@#@@@@@@@@@@@@@@@@@@@@@@@@O.,fkkkkt#.#@@@@@@@@@@olllllllllllllllll",
"llllllllllllllll@@@@@@@@@o@#.*skkkjw#O@@@@@@@@@@@@@@@@@@@@@@@@@@@@@@@@@@@@@@@@@@@@@@@@@@@@.#wjkkkd=.@@o@@@@@+@@+llllllllllllllll",
"lllllllllllllll@@@@@@@@@@@@ ,hkkkf>O+@@@@@@@@@@@@@@@@@@@@@@@@@@@@@@@@@@@@@@@@@@@@@@@@@@@@@@@ ;fkkkj, #@@@@@@@@@+olllllllllllllll",
"llllllllllllllXo@+@@@@@@@@.2kkkky$O@@@@@@@@@@@@@@@@@@@@@@@@@@@@@@@@@@@@@@@@@@@@@@@@@@@@@@@@@@O%ukkkk3 @@@@@@@@@@@+llllllllllllll",
"llllllllllllll@@@@@@@@@@@ 3kkjk0@+@@@@@@@@@@@@@@@@@@@@@@@@@@@@@@@@@@@@@@@@@@@@@@@@@@@@@@@@@@@@O+8kkkk4 o@@@@@@@@@@llllllllllllll",
"lllllllllllll@@o@@@@@@@#.7kkkk3 @@@@@@@@@@@@@@@@@@@@@@@@@@@@@@@@@@@@@@@@@@@@@@@@@@@@@@@@@@@@@@@@.2kkkk7.@@@@@@@@o@@lllllllllllll",
"llllllllllll@@@@@@@@@@@ 4kkkj< #@@@@@@@@@@@@@@@@@@@@@@@@@@@@@@@@@@@@@@@@@@@@@@@@@@@@@@@@@@@@@@@@@ ,hkkk4O@@X@@@@@@@ollllllllllll",
"lllllllllllXX@@@@@@@@@ 2kkkj> #o@@@@@@@@@@@@@@@@@@@@@@@@@@@@@@@@@@@@@@@@@@@@@@@@@@@@@@@@@@@@@@@@@#.,jkkk3 @@@@@@@@@@Xlllllllllll",
"lllllllllll@@+@@@@@@# ,kkkk> #@o@@@@@@@@@@@@@@@@@@@@@@@@+@@@@@@@@@@@@@@@@#@@@@@@@@@@@@@@@@@@@#@@@@# >jkkk, #o@@@@@+@@lllllllllll",
"llllllllll@@@@@@@@@@.*kkkk< ##@@@@@@@@@@@@@@@@@@@@@@@O.@@@@@@@@@@@@@@@@@@.O@@@@@@@@@@@@@@@@@@@@@@@+# ,kkkh=O@@@@@@@@@+llllllllll",
"lllllllll@o@@@@@@@@X#skkk2 @@+@@@@@@@@@@@@@@@@+@@#O @,4@+@@@@@@@@@@@@@@@@4,@OO@@@@@@@@@@@@@@@@@@@@@@# 2kkks$+@@@@@@@@@@lllllllll",
"lllllllll@@@@@@@@@#.ekkk9 #@@@@@@@@@@@@@@@@@@@@@OO*5dkk<O@@@@@@@@@@@@@#.<kkd5&OO#@@@@@@@@@@@@@@@@@@@o# 8kkkr.@@@@@@@o@@lllllllll",
"llllllll@@X@@@@@@@O2kkky+@@@@@@@@@@@@@@@@@@@@@@ *whkkkkpoooo@@@@@@@@o@@opkkkkjw*.@#o@@@@@@@@@@@@@@@@@@@Oykkk3 @@@@@@@@@@llllllll",
"llllllll@@@@@@@@@O*hkkf$+@@@@@@@@@@@@@@@@@@@@O#8hkkkkkkk8 @#@@@@@@@+#@ 6kjkkkkkh9# #@@@@@@@@@@@@@@@@@@@+%fkkh*O@@@@@@@@+llllllll",
"lllllllX@@@@@@@@@+ykkk>O#+@@@@@@@@@@@@@@@@@@ ,dkkkkkkkkkk4 o#@@@@@##+ 4kkkkkkkkkkf, +@@@@@@@@@@@@@@@@@@@.;kkku+@@@@@@@@@@lllllll",
"lllllll@@X@@@@@@ 3kkk9 #+@@@@@@@@@@@@@@@@@O@wkkkkkkkkkkkkke# OXo+@+ #wkkkkkkkkkkkkkw@+@@@@@@@@@@@@@@@@@@# 0kkk3 @@@@@@@@@lllllll",
"llllll@@@@@@@@@+$fkks@@@@@@@@@@@@@@@@@@@#.%ukkkkkkkkkkkkkkkf4*##@#*4fkkkkkkkkkkkkkkkp%.#@@@@@@@@@@@@@@@@@o#skkf%@@@@@@@+@@llllll",
"llllllX@@@@@@@# qkkk,O@@@@@@@@@@@@#@@@+@.*fkkkkkkkkkkkkkkkkkkkgpsgkkkkkkkkkkkkkkkkkkkf- @@@@@@@@@@@@@@@@@@.,kkkw @@@@@@@@@llllll",
"lllll@@@@@@@@@O*jkkyO@@@@@@@@@@@@@@@@@@O-gkkkkkkkkkkkkkkkkkkkkkkkkkkkkkkkkkkkkkkkkkkkkh;O@@@@@@@@@@@@@@@@@@.tkkh*O@@@@@@X@@lllll",
"lllll@@X@@@@@# ekkk*O@@@@@@@@@@@@@@@@@+;gkkkkkkkkkkkkkkkkkkkkkkkkkkkkkkkkkkkkkkkkkkkkkkg&@@@@@@@@@@@@@@@@@@O*kkkeO#@@@@@@@@lllll",
"llllo@@@@@@@@O*kkkq @@@@@@@@@@@@@@@@@@.9kkkkkkkkkkkkkkkkkkkkkkkkkkkkkkkkkkkkkkkkkkkkkkj2@@@@@@@@@@@@@@#@@@@@ qkkk-.@@@@@@@@Xllll",
"llll@@X@@@@@@O9kkk*O@@@@@@@@@@@@@@@@@@@X3kkkkkkkkkkkkkkkkkkkkkkkkkkkkkkkkkkkkkkkkkkkkf; @@o@@@@@@@@@@@@@@@@@O*kkkw.@@@@@@X@@llll",
"llll@@@@@@@#+&hkkq.@@@@@@@@@@@@@@@@@@@@@ ;fkkkkkkkkkkkkkkkhu51,;:,25yjkkkkkkkkkkkkkki% #@@@@@@@@@@@@@@@@@@@@@Owkkh&O@@@@@@@ollll",
"lll@@X@@@@@@ 3kkk-O@@@@@@@@@@@@@@@@@@o@@# %ukkkkkkkkkkkjt>%+  OO .  X%>rjkkkkkkkkkkw@O#@@o@X+@@@@@@@@@@@@@@@@O=kkk3O@@@@@@@@@lll",
"lll@@@@@@@@@#skkyO@@@@@@@@@@@@@@@@@.@@@@o@OX7kkkkkkkkje&. +@#@#@@#@#@+ X&ejkkkkkkk3.o@o@@@O#$@@@@@@@@@@@@@@@@#Otkks#@@@@@@@@@lll",
"lll@@@@@@o@.;kkk<.#@@@@@@@@@@@@@@@@;++@@@@@@ ,gkkkkkp*O+##@@@@@@@@@@@@@@+ -pkkkkg:.@#@@@#.#yy @@@@@@@@@@@@@@@@O<kkk;.@@@@@+@Xlll",
"ll@@@@@@@@@.wkkf$O@@@@@@@@@@@@@@#.>kw#O#@@@@# &pkkk9@.@@@@@@@@@@@@@@@@@@@#.X9kka& #@@@@@O&akk>.#@@@@@@@@@@@@@@@#fkkw.#@@@@@@@@ll",
"llX@@@@@@@@#fkkw.#@@#@@@@@@@@@@@@Oikka& #@@+@#+owk2 @#@@@@@@@@@@@@@@@@@@@o#o 3r#.#@@o@# >hkkkp@@@@@@@@@@@@@@@@@Owkkf#@@@@@@X@@ll",
"ll@@@@@@@@.-kkk,.#@@@@@@@@@@@@@@.<kkkkg> @@@@o@++&.#@o@@@@@@@@@@@@@@@@@@@@@@@+O+#+@o#+ 4kkkkkk<.@@@@@@@@@@@@@@#.,kkk-.#@@@@@@oll",
"ll+@o@@@@# 7kkf#@@@@@@@@@@@@@@@@.ykkkkkk8X+@@@@@@+@@@@@@@@@@@@@@@@@@@@@@@@@@@@@@@@@@+@ekkkkkkku.@@@@@#@@@@@@@@@@#fkk7 @@@@@@@@ll",
"l@@@@@@@@@@ukkt.@@@@@@@@@@@@@@#O-kkkkkkkku% #@@X@#@@@@@@@@@@@@@@@@@@@@@@@@@@@@@@@@@.%ikkkkkkkkk-O@@@@@@@@@@@@@@@Orkki@@@@@@@@@@l",
"l@@X@@@@@@#gkk5 #@@@@@@@@@@@@@@O9kkkkkkkkkg: @@@@@@@@@@@@@@@@@#@#@@@@@@@@@@@@@@@@@ ;gkkkkkkkkkk0O@@@@@@@@@@@@@@# 4kkg$+@@@@@+@@l",
"l+@@@@@@@.;kkk*O@@@@@@@@@@@@@@@#skkkkkkkkkkj4@@@@@@@@@@@@+@@@@+.O+@#@@@@@@@@@@@@@+2jkkkkkkkkkkkf#O@@@@@@@@@@@@@@+*kkk-.@@@@@@@ol",
"l@@@@@@@# 5kkf@@@@@@@@@@@@@@@@.;kkkkkkkkkkkkk8 #@@@@@@@@@@@. #*-=&+ +@@@@@@@@@@@@+ykkkkkkkkkkkkk,O@@@@@@@@@@@@@@@@fkk6 #@@@@@@@l",
"l@@@@@@@@.ekky+@@@@@@@@@@@@@@@ 6kkkkkkkkkkkkk;O@@@@@@@@@@@ -9fkkkjp3$ @@@@@@@@@@@.-kkkkkkkkkkkkk7.#@@@@@@@@@@@@@@@ykke.@@@@@@@+l",
"+@@@@@@@@@pkkw.@@@@@@@@@@@@@@@Otkkkkkkkkkkkku+@@@@@@@@@@X#0kkkkkkkkkg<.@@@@@@@@@@@OukkkkkkkkkkkktO@@@@@@@@@@@@@@@ wkkp@@@@@@@o@@",
"X@@X@@@@@#dkk4 #@@@@@@@@@@@#@+#gkkkkkkkkkkkk3 #@@@@@@@@+#pkkkkkkkkkkkk4.@@@@@@@@@# 2kkkkkkkkkkkkh$@@@@@@@@@@@@@@# 4kkf@@@@@@@@@@",
"@@@@@@@@@#hkk>O@@@@@@@@@@@@@@O-kkkkkkkkkkkkj&+@@@@@@@@@@ukkkkkkkkkkkkkk3O@+@@@@@@@+&jkkkkkkkkkkkk-O@@@@@@@@@@@@@@O;kkh#@@@@@@@@@",
"@@+@@@@@O*kkj&+@@@@@@@@@@@@@#O<kkkkkkkkkkkks@@@@@@@@@@ 4kkkkkkkkkkkkkkkh&O@@@@@@@@@#skkkkkkkkkkkk<O@@@@@@@@@@@@@@+&jkk*O@@@@@X@o",
"@@@@@@@#O,kkh$+@@@@@@@@@@@@@@ 3kkkkkkkkkkkke.#@@@@@@@+%hkkkkkkkkkkkkkkkkwO@@@@@@@@# wkkkkkkkkkkkk3 @@@@@@@@@@@@@@+$gkk,O@@@@@@@@",
"X@@@@@@@ 2kkg#.@@@@@@@@@@@@@# 5kkkkkkkkkkkk3 #@@@@@@#O1kkkkkkkkkkkkkkkkkg$@@@@@@@@# 4kkkkkkkkkkkk5 @@@@@@@@@@@@@@+#fkk3 @@@@@@@@",
"@@@@@@@# 5kkf#@@@@#@@@@@@@@@@ 7kkkkkkkkkkkk<.@@@@@@@@ wkjkkkkkkkkkkkkkkkk,O@@@@@@@@ <kkkkkkkkkkkk7 #@@@@@@@@@@@@@@#fkk6 #@@@@@@@",
"@@@@@@@@ 5kkd#@@@@@@@@@@@@@@# 7kkkkkkkkkkkk,.@@@@@@@@@pkkkkkkkkkkkkkkkkkk2 @@@@@@@#.:kkkkkkkkkkkkw @@@@@@@@@@@@@@o#fkk5 @@@@@@@@",
"@@@@@@@@ 5kkd#@@@@@@@@@@@#@@# 7kjkkkkkkkkkk>.#@@@@@@+#dkkkkkkkkkkkkkkkkkk3O#@@@@@@#.-kkkkkkkkkkkkeO@@@@@@@@@@@@@@@@akk9 #@@@@@@@",
"+@@@@@@# 6kkd#+@@@@@@@@@@@@@@ 7kkkkkkkkkkkk,O#@@@@@@@@pkkkkkkkkkkkkkkkkkk3 #@@@@@@@.,kkkkkkkkkkkk8 @@@@@@@@@@@@@#@@skk9 @@@@@@@@",
"@@@@@@@# 7kkd#@@@@@@@@@@@@@@# 5kkkkkkkkkkkk<O@@@@@@@@ wkkkkkkkkkkkkkkkkkk>.#@@@@@@@.<kkkkkkkkkkkk6 #@@@@@@@@@@@@@@#dkk6 #@@@@@@@",
"@@+@@@@# 5kkf#@@@@@@@@@#@@@@@.4kkjkkkkkkkkk4 @@@@@@@# 1kkkkkkkkkkkkkkkkkg%X@@@@@@@@ 4kkkkkkkkkkjk4 #@@@@@@@@@@@@@@#dkk6 #@@@@@@@",
"@@@@@@@@ 2kkg#+@@@@@@@@@@@@@@ 2kkkkkkkkkkkkeO+@@@@@@@+$gkkkkkkkkkkkkkkkkw o@@@@@@@#.ekkkkkkkkkkkk3 @@@@@@@@@@@@@@+$fkk3.@@@@@@@@",
"@@@@@@@#O>kkh$+@@@#@@@@@@@@@#O*438uhkkkkkkkd#+@@@@@@@@ 4kkkkkkkkkkkkkkkh*O@@@@@@@@o@dkkkkkkkgu834*+@@@@@@@@@@@@@@+$gkk,.@@@@@@@@",
"+@@@@@@@O*kkj&O@@@@@@@@@@@@@O@O.  X%0jkkkkkj*+@@@@@@@@@@ykkkkkkkkkkkkkk2 #@@@@@@@@O*jkkkkkkw%X   +@@@@@@@@@@@@@@@+&jkk*O@@@@@@@@",
"@@@@@@@@+#hkk,O@@@@@@@@@@@@@@@@#@#@X -fkkkkk4 #@@@@@@@@X#ikkkkkkkkkkkk3.@@@@@@@@@@.4kkkkkf- +@##@@@@@@@@@@@@@@@@@.:kkh#@@@@@@+@o",
"+@@+@@@@@@fkk4 #@@@@@@@@@@@@@@@@@@@@# *fkkkkao@@@@@@@@+@Xo9hkkkkkkkkf,.#@@@@@@@@@oXpkkkkf* #@@@@@@@@@@@@@@@@@@@@# 4kkf#@@@@@@@@o",
"+@o@@@@@@+ikkw @@@@@@@@@@@@@@@@@@@@@@# ;kkkkk:.#@@@@@@@@@@O=8skkkhy2#O@@@@@@@@@+o.,kkkkk;O#@@@@@@@@@@@@@@@@@@@@@# wkkp@@@@@@@@@@",
"l@@@@@@@@.ekkuX@@@@@@@@@@@@@@@@@@@@@@@@Oekkkku.o@@@@@@@@@@@OO@&-*%OO@#@@@@@@@@@@#.ukkkkeO@@@@@@@@@@@@@@@@@@@@@@@@@ykkr.@@@@@@@@l",
"l@@@@@@@# 6kkf@@#@@@@@@@@@@@@@@#@@@@@@@O*kkkkk1 #@@@@@@@@@@@@@OOO+@@@+@@@@@@@@@# 1kkkkk*O+@@@@@@@@@@@@@@@@@@@@@@@@dkk7 #@@@@@@@l",
"l@@X@@@@#.-kkk*O@@@@@@@@@@@@@@@@@@@@@@@@Xukkkkf$@@@@@@@@@@@@@@@@@@@@@@@@@@@@@@@@#fkkkkiX@@@@@@@@@@@@@@@#@@@@@@@@.*kkk;.@@@@@@@@l",
"l+@@@@@@@+#gkk5 @@@@@@@@@@@@@@@@@@@@@@@@ ekkkkktO@@+@@@@@@@@@@@@@@@@@@@@@@@@@@@OrkkkkkwO@@@@@@@@@@@@@@@@@@@@@@@@.4kkg#@@@@@@o@@l",
"l@@+@@@@@@@ikkrO@@@@@@@@@@@@@@@@@@@@@@@# 8kkkkkk7O@@@@@@@@@@@@@@@@@@@@@@@@@@@@ 7kkkkkkq @@@@@@@@@@@@@@@@@@@@@@@@.tkkio@@@@@@@@@l",
"ll@@@@@@@# 7kkf@@@@@@@@@@@@@@@#@@@@@@@@# 7kkkkkkk4O+@@@@@@@@@@@@@@@@@@@@@@@@+O4kkkkkjk9 #@@@@@@@@@@@@@@@@@@@@@@@#fkk7.@@@@@@@@ll",
"ll@@@@@@@@.-kkk<O@@@@@@@@@#@@@@@@@@@@@@@ 9kkkkkkkk7OO@@@@@@@@@@@@@@@@@@@@@@OO6kkkkkkkkwO@@@@@@@@@@@@@@@@@@@@@@#O,kkk-O@@@@@X@@ll",
"ll@@X@@@@@@#fkkw.#@@@@@@@@@@@@@@@@@@@@@@Oykkkkkkkkkt$ #@@@@@@@@@@@@@@@@@#@ #tkkkkkkkkky+@@@@@@@@@@@@@@@@@@@@@@@Owkkf#@@@@@@@@@ll",
"ll@@@@@@@@# qkkf#@@@@@@@@@@@@@@@@@@@@@@O%hkkkkkkkkkkf1..@#@@@@@@@@@@@@@@..<gkkkkkkkkkkh%@@@@@@@@@@@@@@@@@@@@@@+#fkkw #@@@@@@@@ll",
"lll@@@@@@@@.;kkk<.#@@@@@@@@@@@@@@@@@@@# 4kkkkkkkkkkkkku>@ .@@@o@@@@@@OO+:ukkkkkkkkkkkkk6 @@@@@@@@@@@@@@@@@@@@# <kkk;.@@@@@@@@lll",
"lllX@@@@@@@@@skky.@@@@@@@@@@@@@@@@@@@@O&hkkkkkkkkkkkkkkka6*#O@@@@@@@#*4akkkkkkkkkkkkkkkh&.@@@@@@@@@@@@@@@@@@@@Xtkks#@@@@@@@@@lll",
"lll@@@@@@@@@.3kkk-.@@@@@@@@@@@@@@@@@@@#ykkkkkkkkkkkkkkkkkkjge#o@@@@8gjkkkkkkkkkkkkkkkkkku#@@@@@@@@@@@@@@@@@@@O=kkk4 @@@@@@X@Xlll",
"llllX@o@@@@@.*hkk9.@@@@@@@@@@@@@@@@@@O4kkkkkkkkkkkkkkkkkkkkkg#@@@@@ukkkkkkkkkkkkkkkkkkkkk5O@@@@@@@@@@@@@@@@@# wkkj&O@@@@@@@@llll",
"llll@@@@@@@@#.0kkk*O@@@@@@@@@@@@@@@@++&akkkkkkkkkkkkkkkkkkkkf#o@@@Oykkkkkkkkkkkkkkkkkkkks&+@@@@@@@@@@@@@@@@@+&jkkw #@@@@@@@@llll",
"llllX@@@@@@@@.*kkkw.@@@@@@@@@@@@@@@@@@O&dkkkkkkkkkkkkkkkkkkkf$o@@@@ykkkkkkkkkkkkkkkkkkks&O@@@@@@@@@@@@@@@@@#.9kkk=.#@@@@@X@ollll",
"lllllX@@@@@@@#.ekkk*.@@@@@@@@@@@@@@@@@@.&fkkkkkkkkkkkkkkkkkkf$O@@@Oykkkkkkkkkkkkkkkkkkf&.#o@@@@@@@@@@@@@@@@O*kkke.@@@@@@@@@lllll",
"lllll@@X@@@@@@O*jkkt.#@@@#@@@@@@@@@@@@@#.$pkkkkkkkkkkkkkkkkkf#o@@@@ukkkkkkkkkkkkkkkkka%.#o@@@@@@@@@@@@@@@@#.rkkk*+@@@@@@@@@lllll",
"llllll@@@@@@@@@.wkkk,.#@@@@@@@@@@@@@@@@@@.#ekkkkkkkkkkkkkkkkg$@@@@Oykkkkkkkkkkkkkkkkt#O@@@@@@@@@@@@@@@@@@@ >kkk0 #@@@@@@@@llllll",
"llllllX@@@@@@@@+$fkks#@@@@@@@@@@@@@@@@@@@#+X3jkkkkkkkkkkkkkkg#O@@@@ukkkkkkkkkkkkkkj4.@@@@@@@@@@@@@@@@@@@@@#skkg$+@@@@@@o@Xllllll",
"lllllll@@X@@@@@@ 3kkkw @@@@@@@@@@@@@@@@@@@@@ =ikkkkkkkkkkkkkg$O@@@@ukkkkkkkkkkkkki-.@@@@@@@@@@@@@@@@@@@@@ 9kkk3 #@@@@@@@@lllllll",
"lllllll@@@@@@@@@@Oukkk:O@@@@@@@@@@@@@@@@@@@@#.+2fkkkkkkkkkkkf#@@@@Oukkkkkkjkkkkf2X.@@@@@@@@@@@@@@@@@@@@#O;kkku+@@@@@@@@@@lllllll",
"llllllll@@@@@@@@@O*hkkf%+@@@@@@@@@@@@@@@@@@@@@@.#4fkkkkkkkkkf$O@@@Oukkkkkkkkkf5#.@@@@@@@@@@@@@@@@@@@@@@@$fkkh*O@@@@@@o@+llllllll",
"llllllll@@@@@@@@@@ 3kkky+@@+@@@@@@@@@@@@@@@@@@@@X #1yjkkkkkkf#o@@@@ykjkkkkky2# o@@@@@@@@@@@@@@@@@@@@@@@+ykkk3O#+@@@@@@@@llllllll",
"lllllllll@@o@@@@@@@.rkkk8 #@@@@@@@@@@@@@@@@@@@@@@#@OO*3rgkkkg$@@@@@ukkkgr4*@.@@@@@@@@@@@@@@@@@@@@@@@@@O7kkkt.#@@@@@@X@@lllllllll",
"lllllllll+@@@@@@@@#+$skkk3 #@@@@@@@@@@@@@@@@@@@@@@@@+O.O#-<44#@@@@@16<-$. O@@@@@@@@@@@@@@@@@@@@@@@@@@.2kkks#+@@@@@@@@@Xlllllllll",
"llllllllll@@@@@@@@@@.=hkkk> #+@@@@@@@@@@@@@@@@@@@@@@@@+@@O.. @@@@@@. O.@@@@@@@@@@@@@@@@@@@@@@@@@@@+@ ,kkkj=.@@@@@@@@@@llllllllll",
"lllllllllll@@o@@@@@@@O,kkkj> #@@@@@@@@@@@@@@@@@@@@@@@@@@@@@#@@@@@@@@@@@@@@@@@@@@@@@@@@@@@@@@@@@@@@@.,hkkk< @@@@@@@o@@lllllllllll",
"lllllllllll+@@o@@@@@@@ 3kkkj>O#@+@@@@@@@@@@@@@@@@@@@@@@@@@@@@@@@@@@@@#@@@@@@@@@@@@@@@@@@@@@@@@@@o# >jkkk3 @@@@@@@@@o+lllllllllll",
"llllllllllllX@@@@@@@@@# 4kkkj> @@@@@@@@@@@@@@@@@@@@@@@@@@@@@@@@@@@@@@@@@@@@@@@@@@@@@@@@@@@@@@@@@# ,hkkk4O@@@@@@@@@@@llllllllllll",
"lllllllllllll@@@@@@@@@@@.6kkkk3O@@@@@@@@@@@@@@@@@@@@@@@@@@@@@@@@@@@@@@@@@@@@@@@@@@@@@@@@@@@@@X@@ 3kkkk7.@@@@@@@@+@@lllllllllllll",
"llllllllllllllo@@@@@@@@@@.4kjkk9++@@@@@@@#@@@@@@@@@@@@@@@@@@@@@@@@@@@@@@@@@@@@@@@@@@@@@@@@@@@#+.8kkkk5.@@@@@@@@+@@llllllllllllll",
"llllllllllllllX@@@@@@@@@@@.2kkkky%.##@@@@@@@@@@@@@@@@@@@@@@@@#@@@@@@@@@@@@@@@@@@@@@@@@@@@@@@# $ykkkj3.@@@@@@@@@@@ollllllllllllll",
"lllllllllllllll@@@+@@@@@X@+.>jkkkf; @@@@@@@@@@@@@@@@@@@@@@@@@@@@@@@@@@@@@@@@@@@@@@@@@@@@@@@o ;fkkkj< @@@@@@@@X@@olllllllllllllll",
"llllllllllllllllX@@@@@@@@@@# *skkkkw#.##@@@@@@@@@@@@@@@@@@@@@@@@@@@@@@@@@@@@@@@@@@@@@@@@#@ #0kkkks* @@@@@@@@@@@@llllllllllllllll",
"lllllllllllllllll@@@@@@@@@o@#X#rkjkks,..@#@@@@@@@@@@@@@@@@@@@@@@@@@@@@@@@@@@@@@@@@@@@@@#+.>skkkkt$.#@@@@@@@@X@@lllllllllllllllll",
"llllllllllllllllll@@o@@@@@@@@#O.3jkkkky*OO@@@@@@@@@@@@@@@@@@@@@@@@@@@@@@@@@@@@@@@@@@@@+O&tkkkkj3.@#X@@@@@@o@@Xllllllllllllllllll",
"lllllllllllllllllll@@@+@@@@@@@@# *ikkkkjw*.O@@@@@@@@@@@@@@@@@@@@@@@@@@@@@@@@@@@@@@@@+.&qkkkkki* @@@@@@@@@@@@@lllllllllllllllllll",
"llllllllllllllllllll@@@@@@@@@@@@@O+3fkkkkkw=..X##@@@@@@@@@@@@@#@@@@@@@@@@@@@@@@@@@OO=qkkkkkg3XO#@@@@@@@@@@@@llllllllllllllllllll",
"lllllllllllllllllllll+@@@@@@@@@@@@@ $whkkkkky<#.O@@@@@@@@@@@@@@@@@@@@@@@@@@@#@@..#<tkkkkkj0$O+@@@@@@@@@@@@+lllllllllllllllllllll",
"llllllllllllllllllllll@@@o@@@@@@@@@@+ *ekkkkkkfw,#. O+@##@@@@@@@@@@@@@@#@@oO .#,wfkkkkkke* +@@@@@@@@@@o@@@llllllllllllllllllllll",
"lllllllllllllllllllllllX@@X@@@@@@@@@@#OO*9jkkkkkkft4*#X  .+oOo@@@@@++O.  +#&4rfkkkkkkjw= X#@@@@@@@@@@@@@Xlllllllllllllllllllllll",
"lllllllllllllllllllllllll@@@+@@@@@@@@@@@..&3skkkkkkkkduw4;%%####@##$$&;4wyfkkkkkkkks4%..#@@@@@@@@@@@+@@lllllllllllllllllllllllll",
"llllllllllllllllllllllllll@o@@@@@@@@@@@@#@OO@;wfkkkkkkkkkkjhffdssddfgkkkkkkkkkkkf0;# X#@@+@@@@@@@@@@o@llllllllllllllllllllllllll",
"lllllllllllllllllllllllllll+@@@o@@@@@@@@@@@@@O #-7igkkkkkkkkkkkkkkkkkkkkkkkkgi7-# .@#@@@@@@@@@@@o@@@+lllllllllllllllllllllllllll",
"lllllllllllllllllllllllllllll@@@o@@@@@@@@@@@@@#+..o#;6rifhkkkkkkkkkkkkgfpe7;$@ .@@#@@@@@@@@@@@o@@@@lllllllllllllllllllllllllllll",
"llllllllllllllllllllllllllllll+@@@o@@@@@@@@@@@@@@@@@. .@##*,25588563,=##o. .X@##@@@@@@@@@@@@@+@@@@llllllllllllllllllllllllllllll",
"llllllllllllllllllllllllllllllll+@@@@@@@@@@@@@@@@@@@@#@@@@O.O       .O@@@@@@@@@@@@@@@@@@@@@@@@@@llllllllllllllllllllllllllllllll",
"llllllllllllllllllllllllllllllllll@@@@@X@@@@@@@@@@@@@@@@@@@#@#@#@#@##@@@@@@@@@@@@@@@@@@@@X@@@@llllllllllllllllllllllllllllllllll",
"llllllllllllllllllllllllllllllllllllX@@@@+@@@@@@@@@@@@@@@@@@@@@@@@@@@@@@@@@@@@@@@@@@@@@@@@@@llllllllllllllllllllllllllllllllllll",
"llllllllllllllllllllllllllllllllllllll@@@@@@@@@@@@@@@@@@@@@@@@@@@@@@@@@@@@@@@@@@@@+@@@@@X@llllllllllllllllllllllllllllllllllllll",
"llllllllllllllllllllllllllllllllllllllllo@+@@@@X@o@@@@@@@@@@@@@@@@@@@@@@@@@@@@@@o@@@@@+ollllllllllllllllllllllllllllllllllllllll",
"lllllllllllllllllllllllllllllllllllllllllll@@@@@@@@@@@@@@@@@@@@@@@@@@@@+@X@o@@@@@@X@@lllllllllllllllllllllllllllllllllllllllllll",
"llllllllllllllllllllllllllllllllllllllllllllllX@@o@@@@@@@@@@@@@@@@@@@o@@@@@@@@+@@@llllllllllllllllllllllllllllllllllllllllllllll",
"llllllllllllllllllllllllllllllllllllllllllllllllll@+o@@+@o@@@@@@@@@@@@@@@X@@@Xllllllllllllllllllllllllllllllllllllllllllllllllll",
"lllllllllllllllllllllllllllllllllllllllllllllllllllllllX++@+@@@@@@@@@+@XXlllllllllllllllllllllllllllllllllllllllllllllllllllllll"
};
